<svg xmlns="http://www.w3.org/2000/svg" xmlns:xlink="http://www.w3.org/1999/xlink" viewBox="0 0 32 40" version="1.1" x="0px" y="0px"><title>valentine_010-stamp-postcard-love-heart copy</title><desc>Created with Sketch.</desc><g stroke="none" stroke-width="1" fill="none" fill-rule="evenodd"><g transform="translate(-640.000000, -64.000000)" fill="#000000"><g transform="translate(640.000000, 64.000000)"><path d="M0,24 C0,24.6675557 0.297494051,25.0580167 1.15802944,25.8647686 C1.79749405,26.4642667 2,26.7300557 2,27 C2,27.0490273 1.92518722,27.1423121 1.67739203,27.3297534 C1.63081644,27.3649849 1.45280155,27.4961285 1.45183755,27.4968447 C0.804535623,27.9776986 0.5,28.3605429 0.5,29 C0.5,30.2761424 1.72385763,31.5 3,31.5 C3.63269205,31.5 4.01048484,31.1981539 4.49586679,30.5495881 C4.58185455,30.4338262 4.62501674,30.3757422 4.66029681,30.3294569 C4.85243966,30.0773774 4.9491131,30 5,30 C5.26994426,30 5.53573332,30.2025059 6.1352314,30.8419706 C6.94198332,31.7025059 7.33244426,32 8,32 C8.78194167,32 9.28401268,31.7131023 10.3123475,30.8904344 C11.1590127,30.2131023 11.5319417,30 12,30 C12.4680583,30 12.8409873,30.2131023 13.6876525,30.8904344 C14.7159873,31.7131023 15.2180583,32 16,32 C16.7819417,32 17.2840127,31.7131023 18.3123475,30.8904344 C19.1590127,30.2131023 19.5319417,30 20,30 C20.4680583,30 20.8409873,30.2131023 21.6876525,30.8904344 C22.7159873,31.7131023 23.2180583,32 24,32 C24.6675557,32 25.0580167,31.7025059 25.8647686,30.8419706 C26.4642667,30.2025059 26.7300557,30 27,30 C27.0508869,30 27.1475603,30.0773774 27.3397032,30.3294569 C27.3749833,30.3757422 27.4181455,30.4338262 27.5041332,30.5495881 C27.9895152,31.1981539 28.367308,31.5 29,31.5 C30.2761424,31.5 31.5,30.2761424 31.5,29 C31.5,28.3605429 31.1954644,27.9776986 30.5481625,27.4968447 C30.5471985,27.4961285 30.3691836,27.3649849 30.322608,27.3297534 C30.0748128,27.1423121 30,27.0490273 30,27 C30,26.7300557 30.2025059,26.4642667 30.8419706,25.8647686 C31.7025059,25.0580167 32,24.6675557 32,24 C32,23.2180583 31.7131023,22.7159873 30.8904344,21.6876525 C30.2131023,20.8409873 30,20.4680583 30,20 C30,19.5319417 30.2131023,19.1590127 30.8904344,18.3123475 C31.7131023,17.2840127 32,16.7819417 32,16 C32,15.2180583 31.7131023,14.7159873 30.8904344,13.6876525 C30.2131023,12.8409873 30,12.4680583 30,12 C30,11.5319417 30.2131023,11.1590127 30.8904344,10.3123475 C31.7131023,9.28401268 32,8.78194167 32,8 C32,7.33244426 31.7025059,6.94198332 30.8419706,6.1352314 C30.2025059,5.53573332 30,5.26994426 30,5 C30,4.95097267 30.0748128,4.85768793 30.322608,4.67024659 C30.3691836,4.63501511 30.5471985,4.50387146 30.5481625,4.50315534 C31.1954644,4.02230135 31.5,3.6394571 31.5,3 C31.5,1.72385763 30.2761424,0.5 29,0.5 C28.367308,0.5 27.9895152,0.801846117 27.5041332,1.45041193 C27.4181455,1.56617381 27.3749833,1.62425783 27.3397032,1.6705431 C27.1475603,1.92262261 27.0508869,2 27,2 C26.7300557,2 26.4642667,1.79749405 25.8647686,1.15802944 C25.0580167,0.297494051 24.6675557,1.13686838e-13 24,1.13686838e-13 C23.2180583,1.13686838e-13 22.7159873,0.286897721 21.6876525,1.1095656 C20.8409873,1.78689772 20.4680583,2 20,2 C19.5319417,2 19.1590127,1.78689772 18.3123475,1.1095656 C17.2840127,0.286897721 16.7819417,1.13686838e-13 16,1.13686838e-13 C15.2180583,1.13686838e-13 14.7159873,0.286897721 13.6876525,1.1095656 C12.8409873,1.78689772 12.4680583,2 12,2 C11.5319417,2 11.1590127,1.78689772 10.3123475,1.1095656 C9.28401268,0.286897721 8.78194167,1.13686838e-13 8,1.13686838e-13 C7.33244426,1.13686838e-13 6.94198332,0.297494051 6.1352314,1.15802944 C5.53573332,1.79749405 5.26994426,2 5,2 C4.9491131,2 4.85243966,1.92262261 4.66029681,1.6705431 C4.62501674,1.62425783 4.58185455,1.56617381 4.49586679,1.45041193 C4.01048484,0.801846117 3.63269205,0.5 3,0.5 C1.72385763,0.5 0.5,1.72385763 0.5,3 C0.5,3.6394571 0.804535623,4.02230135 1.45183755,4.50315534 C1.45280155,4.50387146 1.63081644,4.63501511 1.67739203,4.67024659 C1.92518722,4.85768793 2,4.95097267 2,5 C2,5.26994426 1.79749405,5.53573332 1.15802944,6.1352314 C0.297494051,6.94198332 0,7.33244426 0,8 C0,8.78194167 0.286897721,9.28401268 1.1095656,10.3123475 C1.78689772,11.1590127 2,11.5319417 2,12 C2,12.4680583 1.78689772,12.8409873 1.1095656,13.6876525 C0.286897721,14.7159873 0,15.2180583 0,16 C0,16.7819417 0.286897721,17.2840127 1.1095656,18.3123475 C1.78689772,19.1590127 2,19.5319417 2,20 C2,20.4680583 1.78689772,20.8409873 1.1095656,21.6876525 C0.286897721,22.7159873 0,23.2180583 0,24 Z M4,4 L4,28 L28,28 L28,4 L4,4 Z"/><path d="M15.7660722,21.4643198 L14.5006461,22.729746 L8.13983716,16.3689371 C6.52341951,14.7525194 6.52429371,12.1274891 8.13955417,10.5122286 C9.75528367,8.89649909 12.3820115,8.89826044 13.9962627,10.5125116 L14.5006461,11.016895 L15.0050295,10.5125116 C16.6214471,8.89609393 19.2464775,8.89696812 20.861738,10.5122286 C21.3163247,10.9668153 21.6428737,11.5014309 21.8414963,12.0710101 C20.8626855,12.0140404 19.8676366,12.2976385 19.0499924,12.921878 C17.4044845,11.6660299 15.0383986,11.7893477 13.5345978,13.2931485 C11.8956098,14.9321365 11.8954207,17.5936683 13.5348076,19.2330553 L15.7660722,21.4643198 Z"/><path d="M18.7673978,14.0004651 C17.5199395,12.7530069 15.490314,12.7516459 14.2417046,14.0002553 C12.9934841,15.2484758 12.9928086,17.2768427 14.2419144,18.5259485 L19.0500307,23.3340648 L23.858147,18.5259485 C25.1056052,17.2784903 25.1069662,15.2488647 23.8583568,14.0002553 C22.6101363,12.7520348 20.5817694,12.7513593 19.3326636,14.0004651 L19.0500307,14.283098 L18.7673978,14.0004651 Z"/></g></g></g><text x="0" y="47" fill="#000000" font-size="5px" font-weight="bold" font-family="'Helvetica Neue', Helvetica, Arial-Unicode, Arial, Sans-serif">Created by Xinh Studio</text><text x="0" y="52" fill="#000000" font-size="5px" font-weight="bold" font-family="'Helvetica Neue', Helvetica, Arial-Unicode, Arial, Sans-serif">from the Noun Project</text></svg>